<svg class="main-svg" xmlns="http://www.w3.org/2000/svg" xmlns:xlink="http://www.w3.org/1999/xlink" width="1000" height="800" style="" viewBox="0 0 1000 800"><rect x="0" y="0" width="1000" height="800" style="fill: rgb(255, 255, 255); fill-opacity: 1;"/><defs id="defs-8b064c"><g class="clips"><clipPath id="clip8b064cxyplot" class="plotclip"><rect width="840" height="620"/></clipPath><clipPath class="axesclip" id="clip8b064cx"><rect x="80" y="0" width="840" height="800"/></clipPath><clipPath class="axesclip" id="clip8b064cy"><rect x="0" y="100" width="1000" height="620"/></clipPath><clipPath class="axesclip" id="clip8b064cxy"><rect x="80" y="100" width="840" height="620"/></clipPath></g><g class="gradients"/><g class="patterns"/></defs><g class="bglayer"><rect class="bg" x="80" y="100" width="840" height="620" style="fill: rgb(229, 236, 246); fill-opacity: 1; stroke-width: 0;"/></g><g class="layer-below"><g class="imagelayer"/><g class="shapelayer"/></g><g class="cartesianlayer"><g class="subplot xy"><g class="layer-subplot"><g class="shapelayer"/><g class="imagelayer"/></g><g class="minor-gridlayer"><g class="x"/><g class="y"/></g><g class="gridlayer"><g class="x"><path class="xgrid crisp" transform="translate(107.11,0)" d="M0,100v620" style="stroke: rgb(255, 255, 255); stroke-opacity: 1; stroke-width: 1px;"/><path class="xgrid crisp" transform="translate(210.45,0)" d="M0,100v620" style="stroke: rgb(255, 255, 255); stroke-opacity: 1; stroke-width: 1px;"/><path class="xgrid crisp" transform="translate(313.51,0)" d="M0,100v620" style="stroke: rgb(255, 255, 255); stroke-opacity: 1; stroke-width: 1px;"/><path class="xgrid crisp" transform="translate(416.56,0)" d="M0,100v620" style="stroke: rgb(255, 255, 255); stroke-opacity: 1; stroke-width: 1px;"/><path class="xgrid crisp" transform="translate(519.62,0)" d="M0,100v620" style="stroke: rgb(255, 255, 255); stroke-opacity: 1; stroke-width: 1px;"/><path class="xgrid crisp" transform="translate(622.96,0)" d="M0,100v620" style="stroke: rgb(255, 255, 255); stroke-opacity: 1; stroke-width: 1px;"/><path class="xgrid crisp" transform="translate(726.02,0)" d="M0,100v620" style="stroke: rgb(255, 255, 255); stroke-opacity: 1; stroke-width: 1px;"/><path class="xgrid crisp" transform="translate(829.08,0)" d="M0,100v620" style="stroke: rgb(255, 255, 255); stroke-opacity: 1; stroke-width: 1px;"/></g><g class="y"><path class="ygrid crisp" transform="translate(0,599.3199999999999)" d="M80,0h840" style="stroke: rgb(255, 255, 255); stroke-opacity: 1; stroke-width: 1px;"/><path class="ygrid crisp" transform="translate(0,499.68)" d="M80,0h840" style="stroke: rgb(255, 255, 255); stroke-opacity: 1; stroke-width: 1px;"/><path class="ygrid crisp" transform="translate(0,400.04)" d="M80,0h840" style="stroke: rgb(255, 255, 255); stroke-opacity: 1; stroke-width: 1px;"/><path class="ygrid crisp" transform="translate(0,300.39)" d="M80,0h840" style="stroke: rgb(255, 255, 255); stroke-opacity: 1; stroke-width: 1px;"/><path class="ygrid crisp" transform="translate(0,200.75)" d="M80,0h840" style="stroke: rgb(255, 255, 255); stroke-opacity: 1; stroke-width: 1px;"/><path class="ygrid crisp" transform="translate(0,101.11)" d="M80,0h840" style="stroke: rgb(255, 255, 255); stroke-opacity: 1; stroke-width: 1px;"/></g></g><g class="zerolinelayer"><path class="yzl zl crisp" transform="translate(0,698.96)" d="M80,0h840" style="stroke: rgb(255, 255, 255); stroke-opacity: 1; stroke-width: 2px;"/></g><path class="xlines-below"/><path class="ylines-below"/><g class="overlines-below"/><g class="xaxislayer-below"/><g class="yaxislayer-below"/><g class="overaxes-below"/><g class="plot" transform="translate(80,100)" clip-path="url(#clip8b064cxyplot)"><g class="scatterlayer mlayer"><g class="trace scatter tracef6679a" style="stroke-miterlimit: 2; opacity: 1;"><g class="fills"/><g class="errorbars"/><g class="lines"><path class="js-line" d="M0,589L67.2,589L69.18,579.04L71.15,589L77.08,589L81.04,569.07L83.01,589L84.99,589L86.96,579.04L92.89,579.04L94.87,589L108.71,589L110.68,579.04L124.52,579.04L126.49,589L130.45,579.04L132.42,579.04L134.4,569.07L136.38,569.07L140.33,569.07L142.31,559.11L144.28,559.11L146.26,589L154.16,589L156.14,559.11L158.12,569.07L160.09,559.11L162.07,569.07L164.05,559.11L166.02,559.11L168,569.07L169.98,569.07L171.95,549.14L173.93,559.11L175.91,559.11L183.81,559.11L185.79,569.07L187.76,539.18L189.74,559.11L191.72,539.18L193.69,529.21L195.67,509.29L197.65,529.21L199.62,509.29L201.6,469.43L203.58,469.43L205.55,459.46L209.51,499.32L211.48,459.46L213.46,479.39L215.44,469.43L217.41,519.25L219.39,519.25L227.29,519.25L229.27,509.29L235.2,509.29L237.18,519.25L247.06,519.25L249.04,509.29L251.01,509.29L252.99,469.43L254.96,509.29L256.94,519.25L258.92,509.29L260.89,489.36L262.87,469.43L264.85,469.43L266.82,479.39L268.8,469.43L270.78,469.43L272.75,499.32L278.68,499.32L280.66,489.36L282.64,479.39L284.61,479.39L286.59,479.39L288.56,509.29L290.54,489.36L292.52,489.36L294.49,499.32L296.47,499.32L298.45,489.36L300.42,489.36L304.38,489.36L306.35,469.43L312.28,469.43L314.26,479.39L316.24,469.43L318.21,469.43L320.19,449.5L322.16,459.46L330.07,459.46L332.05,449.5L334.02,509.29L336,509.29L341.93,509.29L343.91,519.25L349.84,519.25L351.81,499.32L353.79,469.43L355.76,479.39L357.74,479.39L359.72,439.54L361.69,439.54L363.67,429.57L365.65,429.57L367.62,419.61L369.6,429.57L371.58,419.61L375.53,419.61L377.51,409.64L383.44,409.64L385.41,399.68L387.39,399.68L389.36,449.5L399.25,449.5L401.22,429.57L403.2,429.57L405.18,419.61L409.13,419.61L411.11,409.64L413.08,409.64L415.06,389.71L417.04,379.75L419.01,439.54L420.99,449.5L422.96,449.5L424.94,479.39L426.92,469.43L428.89,489.36L430.87,479.39L432.85,479.39L434.82,469.43L436.8,449.5L438.78,449.5L440.75,449.5L442.73,439.54L444.71,449.5L446.68,439.54L452.61,409.64L454.59,389.71L456.56,389.71L458.54,349.86L460.52,329.93L462.49,319.96L466.45,250.21L468.42,250.21L470.4,230.29L472.38,310L474.35,419.61L476.33,449.5L478.31,459.46L480.28,489.36L482.26,479.39L484.24,479.39L486.21,459.46L488.19,449.5L490.16,439.54L492.14,419.61L494.12,409.64L496.09,389.71L498.07,399.68L500.05,399.68L504,399.68L505.98,379.75L507.95,379.75L509.93,369.79L511.91,339.89L513.88,329.93L515.86,310L517.84,310L519.81,280.11L521.79,280.11L523.76,250.21L525.74,240.25L527.72,230.29L529.69,290.07L531.67,250.21L533.65,250.21L535.62,240.25L537.6,240.25L539.58,220.32L541.55,220.32L543.53,220.32L545.51,200.39L547.48,240.25L549.46,260.18L551.44,250.21L553.41,250.21L555.39,240.25L557.36,240.25L559.34,210.36L561.32,300.04L563.29,339.89L565.27,339.89L567.25,329.93L569.22,339.89L581.08,339.89L583.06,319.96L585.04,310L587.01,310L590.96,290.07L592.94,310L594.92,429.57L596.89,399.68L598.87,349.86L600.85,329.93L602.82,319.96L604.8,290.07L606.78,270.14L608.75,170.5L610.73,170.5L612.71,160.54L614.68,160.54L616.66,140.61L624.56,140.61L626.54,120.68L628.52,110.71L630.49,40.96L632.47,260.18L634.45,240.25L636.42,210.36L638.4,210.36L640.38,210.36L642.35,200.39L644.33,190.43L646.31,200.39L648.28,190.43L650.26,230.29L652.24,220.32L654.21,290.07L656.19,310L658.16,300.04L660.14,280.11L662.12,250.21L664.09,250.21L666.07,260.18L668.05,280.11L670.02,270.14L675.95,240.25L677.93,240.25L679.91,240.25L681.88,230.29L683.86,240.25L685.84,230.29L687.81,240.25L689.79,240.25L693.74,200.39L695.72,190.43L697.69,200.39L699.67,200.39L701.65,180.46L703.62,180.46L705.6,160.54L707.58,150.57L709.55,90.79L711.53,90.79L713.51,90.79L715.48,70.86L717.46,150.57L719.44,150.57L721.41,140.61L723.39,140.61L725.36,140.61L727.34,130.64L729.32,130.64L731.29,120.68L733.27,130.64L735.25,80.82L737.22,90.79L739.2,120.68L741.18,120.68L743.15,80.82L749.08,140.61L751.06,260.18L753.04,250.21L755.01,270.14L756.99,270.14L758.96,240.25L760.94,250.21L762.92,250.21L764.89,250.21L766.87,240.25L768.85,230.29L770.82,240.25L772.8,230.29L774.78,230.29L776.75,230.29L778.73,200.39L780.71,210.36L782.68,140.61L788.61,140.61L790.59,120.68L792.56,110.71L794.54,110.71L804.42,60.89L806.4,60.89L808.38,40.96L810.35,90.79L812.33,40.96L814.31,40.96L816.28,31L818.26,60.89L822.21,80.82L824.19,120.68L826.16,120.68L828.14,110.71L830.12,40.96L832.09,100.75L834.07,100.75L836.05,120.68L838.02,100.75L840,150.57" style="vector-effect: none; fill: none; stroke: rgb(99, 110, 250); stroke-opacity: 1; stroke-width: 2px; opacity: 1;"/></g><g class="points"/><g class="text"/></g></g></g><g class="overplot"/><path class="xlines-above crisp" d="M0,0" style="fill: none;"/><path class="ylines-above crisp" d="M0,0" style="fill: none;"/><g class="overlines-above"/><g class="xaxislayer-above"><g class="xtick"><text text-anchor="middle" x="0" y="733" transform="translate(107.11,0)" style="font-family: 'Open Sans', verdana, arial, sans-serif; font-size: 12px; fill: rgb(42, 63, 95); fill-opacity: 1; white-space: pre; opacity: 1;">2016</text></g><g class="xtick"><text text-anchor="middle" x="0" y="733" style="font-family: 'Open Sans', verdana, arial, sans-serif; font-size: 12px; fill: rgb(42, 63, 95); fill-opacity: 1; white-space: pre; opacity: 1;" transform="translate(210.45,0)">2017</text></g><g class="xtick"><text text-anchor="middle" x="0" y="733" style="font-family: 'Open Sans', verdana, arial, sans-serif; font-size: 12px; fill: rgb(42, 63, 95); fill-opacity: 1; white-space: pre; opacity: 1;" transform="translate(313.51,0)">2018</text></g><g class="xtick"><text text-anchor="middle" x="0" y="733" style="font-family: 'Open Sans', verdana, arial, sans-serif; font-size: 12px; fill: rgb(42, 63, 95); fill-opacity: 1; white-space: pre; opacity: 1;" transform="translate(416.56,0)">2019</text></g><g class="xtick"><text text-anchor="middle" x="0" y="733" style="font-family: 'Open Sans', verdana, arial, sans-serif; font-size: 12px; fill: rgb(42, 63, 95); fill-opacity: 1; white-space: pre; opacity: 1;" transform="translate(519.62,0)">2020</text></g><g class="xtick"><text text-anchor="middle" x="0" y="733" style="font-family: 'Open Sans', verdana, arial, sans-serif; font-size: 12px; fill: rgb(42, 63, 95); fill-opacity: 1; white-space: pre; opacity: 1;" transform="translate(622.96,0)">2021</text></g><g class="xtick"><text text-anchor="middle" x="0" y="733" style="font-family: 'Open Sans', verdana, arial, sans-serif; font-size: 12px; fill: rgb(42, 63, 95); fill-opacity: 1; white-space: pre; opacity: 1;" transform="translate(726.02,0)">2022</text></g><g class="xtick"><text text-anchor="middle" x="0" y="733" style="font-family: 'Open Sans', verdana, arial, sans-serif; font-size: 12px; fill: rgb(42, 63, 95); fill-opacity: 1; white-space: pre; opacity: 1;" transform="translate(829.08,0)">2023</text></g></g><g class="yaxislayer-above"><g class="ytick"><text text-anchor="end" x="79" y="4.199999999999999" transform="translate(0,698.96)" style="font-family: 'Open Sans', verdana, arial, sans-serif; font-size: 12px; fill: rgb(42, 63, 95); fill-opacity: 1; white-space: pre; opacity: 1;">0</text></g><g class="ytick"><text text-anchor="end" x="79" y="4.199999999999999" style="font-family: 'Open Sans', verdana, arial, sans-serif; font-size: 12px; fill: rgb(42, 63, 95); fill-opacity: 1; white-space: pre; opacity: 1;" transform="translate(0,599.3199999999999)">10</text></g><g class="ytick"><text text-anchor="end" x="79" y="4.199999999999999" style="font-family: 'Open Sans', verdana, arial, sans-serif; font-size: 12px; fill: rgb(42, 63, 95); fill-opacity: 1; white-space: pre; opacity: 1;" transform="translate(0,499.68)">20</text></g><g class="ytick"><text text-anchor="end" x="79" y="4.199999999999999" style="font-family: 'Open Sans', verdana, arial, sans-serif; font-size: 12px; fill: rgb(42, 63, 95); fill-opacity: 1; white-space: pre; opacity: 1;" transform="translate(0,400.04)">30</text></g><g class="ytick"><text text-anchor="end" x="79" y="4.199999999999999" style="font-family: 'Open Sans', verdana, arial, sans-serif; font-size: 12px; fill: rgb(42, 63, 95); fill-opacity: 1; white-space: pre; opacity: 1;" transform="translate(0,300.39)">40</text></g><g class="ytick"><text text-anchor="end" x="79" y="4.199999999999999" style="font-family: 'Open Sans', verdana, arial, sans-serif; font-size: 12px; fill: rgb(42, 63, 95); fill-opacity: 1; white-space: pre; opacity: 1;" transform="translate(0,200.75)">50</text></g><g class="ytick"><text text-anchor="end" x="79" y="4.199999999999999" style="font-family: 'Open Sans', verdana, arial, sans-serif; font-size: 12px; fill: rgb(42, 63, 95); fill-opacity: 1; white-space: pre; opacity: 1;" transform="translate(0,101.11)">60</text></g></g><g class="overaxes-above"/></g></g><g class="polarlayer"/><g class="smithlayer"/><g class="ternarylayer"/><g class="geolayer"/><g class="funnelarealayer"/><g class="pielayer"/><g class="iciclelayer"/><g class="treemaplayer"/><g class="sunburstlayer"/><g class="glimages"/><defs id="topdefs-8b064c"><g class="clips"/></defs><g class="layer-above"><g class="imagelayer"/><g class="shapelayer"/></g><g class="infolayer"><g class="g-gtitle"><text class="gtitle" x="50" y="50" text-anchor="start" dy="0em" style="font-family: 'Open Sans', verdana, arial, sans-serif; font-size: 17px; fill: rgb(42, 63, 95); opacity: 1; font-weight: normal; white-space: pre;">Open pull requests on each week</text></g><g class="g-xtitle"><text class="xtitle" x="500" y="759.8" text-anchor="middle" style="font-family: 'Open Sans', verdana, arial, sans-serif; font-size: 14px; fill: rgb(42, 63, 95); opacity: 1; font-weight: normal; white-space: pre;">date</text></g><g class="g-ytitle"><text class="ytitle" transform="rotate(-90,39.434375,410)" x="39.434375" y="410" text-anchor="middle" style="font-family: 'Open Sans', verdana, arial, sans-serif; font-size: 14px; fill: rgb(42, 63, 95); opacity: 1; font-weight: normal; white-space: pre;">count</text></g></g></svg>