<svg class="main-svg" xmlns="http://www.w3.org/2000/svg" xmlns:xlink="http://www.w3.org/1999/xlink" width="1000" height="800" style="" viewBox="0 0 1000 800"><rect x="0" y="0" width="1000" height="800" style="fill: rgb(255, 255, 255); fill-opacity: 1;"/><defs id="defs-bfb650"><g class="clips"><clipPath id="clipbfb650xyplot" class="plotclip"><rect width="808" height="620"/></clipPath><clipPath class="axesclip" id="clipbfb650x"><rect x="80" y="0" width="808" height="800"/></clipPath><clipPath class="axesclip" id="clipbfb650y"><rect x="0" y="100" width="1000" height="620"/></clipPath><clipPath class="axesclip" id="clipbfb650xy"><rect x="80" y="100" width="808" height="620"/></clipPath></g><g class="gradients"/><g class="patterns"/></defs><g class="bglayer"><rect class="bg" x="80" y="100" width="808" height="620" style="fill: rgb(229, 236, 246); fill-opacity: 1; stroke-width: 0;"/></g><g class="layer-below"><g class="imagelayer"/><g class="shapelayer"/></g><g class="cartesianlayer"><g class="subplot xy"><g class="layer-subplot"><g class="shapelayer"/><g class="imagelayer"/></g><g class="minor-gridlayer"><g class="x"/><g class="y"/></g><g class="gridlayer"><g class="x"><path class="xgrid crisp" transform="translate(118.74000000000001,0)" d="M0,100v620" style="stroke: rgb(255, 255, 255); stroke-opacity: 1; stroke-width: 1px;"/><path class="xgrid crisp" transform="translate(216.54,0)" d="M0,100v620" style="stroke: rgb(255, 255, 255); stroke-opacity: 1; stroke-width: 1px;"/><path class="xgrid crisp" transform="translate(314.06,0)" d="M0,100v620" style="stroke: rgb(255, 255, 255); stroke-opacity: 1; stroke-width: 1px;"/><path class="xgrid crisp" transform="translate(411.59,0)" d="M0,100v620" style="stroke: rgb(255, 255, 255); stroke-opacity: 1; stroke-width: 1px;"/><path class="xgrid crisp" transform="translate(509.12,0)" d="M0,100v620" style="stroke: rgb(255, 255, 255); stroke-opacity: 1; stroke-width: 1px;"/><path class="xgrid crisp" transform="translate(606.91,0)" d="M0,100v620" style="stroke: rgb(255, 255, 255); stroke-opacity: 1; stroke-width: 1px;"/><path class="xgrid crisp" transform="translate(704.44,0)" d="M0,100v620" style="stroke: rgb(255, 255, 255); stroke-opacity: 1; stroke-width: 1px;"/><path class="xgrid crisp" transform="translate(801.96,0)" d="M0,100v620" style="stroke: rgb(255, 255, 255); stroke-opacity: 1; stroke-width: 1px;"/></g><g class="y"><path class="ygrid crisp" transform="translate(0,594.06)" d="M80,0h808" style="stroke: rgb(255, 255, 255); stroke-opacity: 1; stroke-width: 1px;"/><path class="ygrid crisp" transform="translate(0,497.19)" d="M80,0h808" style="stroke: rgb(255, 255, 255); stroke-opacity: 1; stroke-width: 1px;"/><path class="ygrid crisp" transform="translate(0,400.31)" d="M80,0h808" style="stroke: rgb(255, 255, 255); stroke-opacity: 1; stroke-width: 1px;"/><path class="ygrid crisp" transform="translate(0,303.44)" d="M80,0h808" style="stroke: rgb(255, 255, 255); stroke-opacity: 1; stroke-width: 1px;"/><path class="ygrid crisp" transform="translate(0,206.56)" d="M80,0h808" style="stroke: rgb(255, 255, 255); stroke-opacity: 1; stroke-width: 1px;"/><path class="ygrid crisp" transform="translate(0,109.69)" d="M80,0h808" style="stroke: rgb(255, 255, 255); stroke-opacity: 1; stroke-width: 1px;"/></g></g><g class="zerolinelayer"><path class="yzl zl crisp" transform="translate(0,690.94)" d="M80,0h808" style="stroke: rgb(255, 255, 255); stroke-opacity: 1; stroke-width: 2px;"/></g><path class="xlines-below"/><path class="ylines-below"/><g class="overlines-below"/><g class="xaxislayer-below"/><g class="yaxislayer-below"/><g class="overaxes-below"/><g class="plot" transform="translate(80,100)" clip-path="url(#clipbfb650xyplot)"><g class="scatterlayer mlayer"><g class="trace scatter tracee3a84d" style="stroke-miterlimit: 2; opacity: 1;"><g class="fills"/><g class="errorbars"/><g class="lines"><path class="js-line" d="M13.09,589L76.69,589L78.56,587.06L80.43,589L86.04,589L89.78,585.13L91.65,589L93.52,589L95.39,587.06L101,587.06L102.87,589L115.96,589L117.83,587.06L130.93,587.06L132.8,589L136.54,587.06L138.41,587.06L140.28,585.13L142.15,585.13L145.89,585.13L147.76,583.19L149.63,583.19L151.5,589L158.98,589L160.85,583.19L162.72,585.13L164.59,583.19L166.46,585.13L168.33,583.19L170.2,583.19L172.07,585.13L173.94,585.13L175.81,581.25L177.69,583.19L179.56,583.19L187.04,583.19L188.91,585.13L190.78,579.31L192.65,583.19L194.52,579.31L196.39,577.38L198.26,573.5L200.13,577.38L202,573.5L203.87,565.75L205.74,565.75L207.61,563.81L211.35,571.56L213.22,563.81L215.09,567.69L216.96,565.75L218.83,575.44L220.7,575.44L228.19,575.44L230.06,573.5L235.67,573.5L237.54,575.44L246.89,575.44L248.76,573.5L250.63,573.5L252.5,565.75L254.37,573.5L256.24,575.44L258.11,573.5L259.98,569.63L261.85,565.75L263.72,565.75L265.59,567.69L267.46,565.75L269.33,565.75L271.2,571.56L276.81,571.56L278.69,569.63L280.56,567.69L282.43,567.69L284.3,567.69L286.17,573.5L288.04,569.63L289.91,569.63L291.78,571.56L293.65,571.56L295.52,569.63L297.39,569.63L301.13,569.63L303,565.75L308.61,565.75L310.48,567.69L312.35,565.75L314.22,565.75L316.09,561.88L317.96,563.81L325.44,563.81L327.31,561.88L329.19,573.5L331.06,573.5L336.67,573.5L338.54,575.44L344.15,575.44L346.02,571.56L347.89,565.75L349.76,567.69L351.63,567.69L353.5,559.94L355.37,559.94L357.24,558L359.11,558L360.98,556.06L362.85,558L364.72,556.06L368.46,556.06L370.33,554.13L375.94,554.13L377.81,552.19L379.69,552.19L381.56,561.88L390.91,561.88L392.78,558L394.65,558L396.52,556.06L400.26,556.06L402.13,554.13L404,554.13L405.87,550.25L407.74,548.31L409.61,559.94L411.48,561.88L413.35,561.88L415.22,567.69L417.09,565.75L418.96,569.63L420.83,567.69L422.7,567.69L424.57,565.75L426.44,561.88L428.31,561.88L430.19,561.88L432.06,559.94L433.93,561.88L435.8,559.94L441.41,554.13L443.28,550.25L445.15,550.25L447.02,542.5L448.89,538.63L450.76,536.69L454.5,523.13L456.37,523.13L458.24,519.25L460.11,534.75L461.98,556.06L463.85,561.88L465.72,563.81L467.59,569.63L469.46,567.69L471.33,567.69L473.2,563.81L475.07,561.88L476.94,559.94L478.81,556.06L480.69,554.13L482.56,550.25L484.43,552.19L486.3,552.19L490.04,552.19L491.91,548.31L493.78,548.31L495.65,546.38L497.52,540.56L499.39,538.63L501.26,534.75L503.13,534.75L505,528.94L506.87,528.94L508.74,523.13L510.61,521.19L512.48,519.25L514.35,530.88L516.22,523.13L518.09,523.13L519.96,521.19L521.83,521.19L523.7,517.31L525.57,517.31L527.44,517.31L529.31,513.44L531.19,521.19L533.06,525.06L534.93,523.13L536.8,523.13L538.67,521.19L540.54,521.19L542.41,515.38L544.28,532.81L546.15,540.56L548.02,540.56L549.89,538.63L551.76,540.56L562.98,540.56L564.85,536.69L566.72,534.75L568.59,534.75L572.33,530.88L574.2,534.75L576.07,558L577.94,552.19L579.81,542.5L581.69,538.63L583.56,536.69L585.43,530.88L587.3,527L589.17,507.63L591.04,507.63L592.91,505.69L594.78,505.69L596.65,501.81L604.13,501.81L606,497.94L607.87,496L609.74,482.44L611.61,525.06L613.48,521.19L615.35,515.38L617.22,515.38L619.09,515.38L620.96,513.44L622.83,511.5L624.7,513.44L626.57,511.5L628.44,519.25L630.31,517.31L632.19,530.88L634.06,534.75L635.93,532.81L637.8,528.94L639.67,523.13L641.54,523.13L643.41,525.06L645.28,528.94L647.15,527L652.76,521.19L654.63,521.19L656.5,521.19L658.37,519.25L660.24,521.19L662.11,519.25L663.98,521.19L665.85,521.19L669.59,513.44L671.46,511.5L673.33,513.44L675.2,513.44L677.07,509.56L678.94,509.56L680.81,505.69L682.69,503.75L684.56,492.13L686.43,492.13L688.3,492.13L690.17,488.25L692.04,503.75L693.91,503.75L695.78,501.81L697.65,501.81L699.52,501.81L701.39,499.88L703.26,499.88L705.13,497.94L707,499.88L708.87,490.19L710.74,492.13L712.61,497.94L714.48,497.94L716.35,490.19L721.96,501.81L723.83,525.06L725.7,523.13L727.57,527L729.44,527L731.31,521.19L733.19,523.13L735.06,523.13L736.93,523.13L738.8,521.19L740.67,519.25L742.54,521.19L744.41,519.25L746.28,519.25L748.15,519.25L750.02,513.44L751.89,515.38L753.76,501.81L759.37,501.81L761.24,497.94L763.11,496L764.98,496L774.33,486.31L776.2,486.31L778.07,482.44L779.94,492.13L781.81,482.44L783.69,482.44L785.56,480.5L787.43,486.31L791.17,490.19L793.04,497.94L794.91,497.94L796.78,496L798.65,482.44L800.52,494.06L802.39,494.06L804.26,497.94L806.13,494.06L808,503.75" style="vector-effect: none; fill: none; stroke: rgb(99, 110, 250); stroke-opacity: 1; stroke-width: 2px; opacity: 1;"/></g><g class="points"/><g class="text"/></g><g class="trace scatter trace1e81e9" style="stroke-miterlimit: 2; opacity: 1;"><g class="fills"/><g class="errorbars"/><g class="lines"><path class="js-line" d="M0,585.13L1.87,587.06L3.74,587.06L5.61,587.06L7.48,581.25L9.35,573.5L11.22,571.56L13.09,552.19L14.96,546.38L16.83,567.69L18.7,559.94L20.57,565.75L22.44,556.06L26.19,542.5L28.06,542.5L29.93,550.25L31.8,548.31L33.67,536.69L35.54,536.69L39.28,536.69L41.15,534.75L43.02,534.75L44.89,532.81L46.76,528.94L48.63,532.81L52.37,536.69L54.24,540.56L56.11,536.69L57.98,542.5L59.85,546.38L61.72,554.13L65.46,550.25L67.33,552.19L69.2,546.38L71.07,550.25L72.94,548.31L74.81,552.19L76.69,546.38L78.56,544.44L80.43,536.69L82.3,534.75L84.17,536.69L86.04,532.81L87.91,548.31L89.78,542.5L91.65,550.25L93.52,552.19L97.26,542.5L99.13,540.56L101,542.5L102.87,546.38L104.74,540.56L106.61,538.63L108.48,527L110.35,527L112.22,521.19L114.09,521.19L115.96,507.63L117.83,505.69L119.7,497.94L121.57,486.31L123.44,488.25L125.31,503.75L127.19,499.88L129.06,492.13L130.93,501.81L132.8,505.69L134.67,521.19L136.54,513.44L138.41,511.5L140.28,507.63L142.15,505.69L144.02,501.81L145.89,497.94L147.76,488.25L149.63,486.31L151.5,492.13L153.37,496L155.24,490.19L157.11,486.31L158.98,484.38L160.85,480.5L162.72,488.25L164.59,486.31L166.46,486.31L168.33,484.38L170.2,486.31L172.07,499.88L173.94,507.63L175.81,499.88L177.69,499.88L179.56,494.06L181.43,492.13L183.3,484.38L185.17,484.38L187.04,503.75L188.91,507.63L190.78,486.31L192.65,494.06L194.52,486.31L196.39,488.25L198.26,484.38L200.13,486.31L205.74,466.94L207.61,457.25L209.48,461.13L211.35,463.06L213.22,451.44L215.09,455.31L216.96,449.5L218.83,505.69L220.7,499.88L222.57,501.81L226.31,497.94L228.19,494.06L230.06,488.25L231.93,494.06L233.8,494.06L235.67,492.13L237.54,484.38L239.41,480.5L241.28,476.63L243.15,474.69L245.02,482.44L246.89,476.63L248.76,484.38L250.63,476.63L252.5,468.88L254.37,474.69L256.24,472.75L258.11,466.94L261.85,459.19L263.72,453.38L265.59,451.44L267.46,445.63L269.33,441.75L271.2,443.69L273.07,455.31L274.94,459.19L276.81,459.19L278.69,457.25L280.56,449.5L282.43,453.38L284.3,451.44L286.17,451.44L289.91,437.88L291.78,449.5L295.52,445.63L297.39,439.81L299.26,437.88L301.13,430.13L303,414.63L304.87,412.69L308.61,408.81L310.48,414.63L312.35,418.5L314.22,418.5L316.09,408.81L317.96,408.81L319.83,412.69L321.7,410.75L323.57,406.88L325.44,399.13L327.31,397.19L329.19,420.44L331.06,418.5L332.93,418.5L334.8,416.56L336.67,410.75L338.54,414.63L340.41,412.69L342.28,412.69L344.15,408.81L346.02,403L347.89,387.5L349.76,393.31L351.63,389.44L353.5,381.69L355.37,377.81L357.24,370.06L359.11,366.19L360.98,352.63L362.85,354.56L366.59,344.88L368.46,342.94L372.2,339.06L374.07,341L379.69,335.19L381.56,344.88L383.43,348.75L385.3,344.88L387.17,342.94L389.04,335.19L390.91,335.19L392.78,327.44L394.65,327.44L396.52,321.63L398.39,321.63L400.26,319.69L402.13,315.81L404,308.06L407.74,298.38L409.61,313.88L411.48,323.56L413.35,317.75L415.22,327.44L417.09,358.44L418.96,372L420.83,366.19L424.57,350.69L426.44,346.81L430.19,342.94L432.06,327.44L433.93,329.38L435.8,327.44L437.67,323.56L439.54,315.81L441.41,311.94L443.28,306.13L445.15,306.13L447.02,296.44L448.89,282.88L450.76,279L452.63,261.56L454.5,263.5L456.37,265.44L458.24,259.63L461.98,304.19L463.85,304.19L465.72,310L467.59,319.69L469.46,362.31L471.33,366.19L475.07,342.94L476.94,337.13L480.69,323.56L482.56,315.81L490.04,290.63L491.91,277.06L493.78,275.13L495.65,263.5L501.26,238.31L503.13,232.5L505,220.88L506.87,218.94L510.61,191.81L512.48,184.06L514.35,199.56L516.22,187.94L518.09,184.06L519.96,184.06L521.83,176.31L523.7,172.44L525.57,172.44L527.44,218.94L529.31,213.13L531.19,220.88L533.06,226.69L534.93,224.75L536.8,224.75L538.67,218.94L540.54,215.06L542.41,207.31L546.15,238.31L548.02,232.5L549.89,222.81L551.76,248L553.63,248L555.5,246.06L557.37,244.13L559.24,248L561.11,244.13L562.98,238.31L564.85,228.63L566.72,228.63L568.59,224.75L570.46,213.13L574.2,224.75L576.07,273.19L577.94,279L579.81,263.5L583.56,249.94L585.43,242.19L587.3,236.38L589.17,209.25L592.91,201.5L594.78,187.94L596.65,178.25L598.52,176.31L600.39,172.44L602.26,166.63L604.13,162.75L606,155L607.87,151.13L609.74,131.75L611.61,205.38L613.48,201.5L615.35,195.69L617.22,195.69L622.83,184.06L624.7,189.88L626.57,182.13L628.44,195.69L630.31,189.88L632.19,259.63L634.06,257.69L635.93,257.69L637.8,242.19L639.67,236.38L641.54,236.38L643.41,238.31L645.28,242.19L647.15,234.44L649.02,230.56L650.89,222.81L652.76,217L654.63,217L656.5,213.13L658.37,207.31L660.24,203.44L662.11,197.63L663.98,197.63L665.85,189.88L667.72,184.06L669.59,174.38L671.46,166.63L673.33,176.31L675.2,172.44L677.07,164.69L678.94,164.69L680.81,153.06L682.69,149.19L684.56,133.69L686.43,133.69L688.3,131.75L690.17,122.06L692.04,162.75L695.78,155L697.65,155L699.52,147.25L701.39,143.38L703.26,141.44L705.13,122.06L707,124L708.87,110.44L710.74,108.5L712.61,120.13L716.35,106.56L718.22,108.5L720.09,112.38L721.96,118.19L723.83,160.81L725.7,166.63L727.57,170.5L729.44,168.56L731.31,155L733.19,158.88L736.93,151.13L738.8,145.31L744.41,127.88L746.28,125.94L750.02,112.38L751.89,112.38L753.76,93L755.63,93L759.37,85.25L761.24,83.31L763.11,83.31L764.98,79.44L766.85,73.63L768.72,63.94L772.46,56.19L774.33,44.56L776.2,42.63L778.07,36.81L779.94,54.25L781.81,36.81L783.69,36.81L785.56,34.88L789.3,34.88L791.17,31L793.04,63.94L794.91,56.19L796.78,54.25L798.65,32.94L800.52,54.25L802.39,54.25L804.26,60.06L806.13,56.19L808,77.5" style="vector-effect: none; fill: none; stroke: rgb(239, 85, 59); stroke-opacity: 1; stroke-width: 2px; opacity: 1;"/></g><g class="points"/><g class="text"/></g></g></g><g class="overplot"/><path class="xlines-above crisp" d="M0,0" style="fill: none;"/><path class="ylines-above crisp" d="M0,0" style="fill: none;"/><g class="overlines-above"/><g class="xaxislayer-above"><g class="xtick"><text text-anchor="middle" x="0" y="733" transform="translate(118.74000000000001,0)" style="font-family: 'Open Sans', verdana, arial, sans-serif; font-size: 12px; fill: rgb(42, 63, 95); fill-opacity: 1; white-space: pre; opacity: 1;">2016</text></g><g class="xtick"><text text-anchor="middle" x="0" y="733" style="font-family: 'Open Sans', verdana, arial, sans-serif; font-size: 12px; fill: rgb(42, 63, 95); fill-opacity: 1; white-space: pre; opacity: 1;" transform="translate(216.54,0)">2017</text></g><g class="xtick"><text text-anchor="middle" x="0" y="733" style="font-family: 'Open Sans', verdana, arial, sans-serif; font-size: 12px; fill: rgb(42, 63, 95); fill-opacity: 1; white-space: pre; opacity: 1;" transform="translate(314.06,0)">2018</text></g><g class="xtick"><text text-anchor="middle" x="0" y="733" style="font-family: 'Open Sans', verdana, arial, sans-serif; font-size: 12px; fill: rgb(42, 63, 95); fill-opacity: 1; white-space: pre; opacity: 1;" transform="translate(411.59,0)">2019</text></g><g class="xtick"><text text-anchor="middle" x="0" y="733" style="font-family: 'Open Sans', verdana, arial, sans-serif; font-size: 12px; fill: rgb(42, 63, 95); fill-opacity: 1; white-space: pre; opacity: 1;" transform="translate(509.12,0)">2020</text></g><g class="xtick"><text text-anchor="middle" x="0" y="733" style="font-family: 'Open Sans', verdana, arial, sans-serif; font-size: 12px; fill: rgb(42, 63, 95); fill-opacity: 1; white-space: pre; opacity: 1;" transform="translate(606.91,0)">2021</text></g><g class="xtick"><text text-anchor="middle" x="0" y="733" style="font-family: 'Open Sans', verdana, arial, sans-serif; font-size: 12px; fill: rgb(42, 63, 95); fill-opacity: 1; white-space: pre; opacity: 1;" transform="translate(704.44,0)">2022</text></g><g class="xtick"><text text-anchor="middle" x="0" y="733" style="font-family: 'Open Sans', verdana, arial, sans-serif; font-size: 12px; fill: rgb(42, 63, 95); fill-opacity: 1; white-space: pre; opacity: 1;" transform="translate(801.96,0)">2023</text></g></g><g class="yaxislayer-above"><g class="ytick"><text text-anchor="end" x="79" y="4.199999999999999" transform="translate(0,690.94)" style="font-family: 'Open Sans', verdana, arial, sans-serif; font-size: 12px; fill: rgb(42, 63, 95); fill-opacity: 1; white-space: pre; opacity: 1;">0</text></g><g class="ytick"><text text-anchor="end" x="79" y="4.199999999999999" style="font-family: 'Open Sans', verdana, arial, sans-serif; font-size: 12px; fill: rgb(42, 63, 95); fill-opacity: 1; white-space: pre; opacity: 1;" transform="translate(0,594.06)">50</text></g><g class="ytick"><text text-anchor="end" x="79" y="4.199999999999999" style="font-family: 'Open Sans', verdana, arial, sans-serif; font-size: 12px; fill: rgb(42, 63, 95); fill-opacity: 1; white-space: pre; opacity: 1;" transform="translate(0,497.19)">100</text></g><g class="ytick"><text text-anchor="end" x="79" y="4.199999999999999" style="font-family: 'Open Sans', verdana, arial, sans-serif; font-size: 12px; fill: rgb(42, 63, 95); fill-opacity: 1; white-space: pre; opacity: 1;" transform="translate(0,400.31)">150</text></g><g class="ytick"><text text-anchor="end" x="79" y="4.199999999999999" style="font-family: 'Open Sans', verdana, arial, sans-serif; font-size: 12px; fill: rgb(42, 63, 95); fill-opacity: 1; white-space: pre; opacity: 1;" transform="translate(0,303.44)">200</text></g><g class="ytick"><text text-anchor="end" x="79" y="4.199999999999999" style="font-family: 'Open Sans', verdana, arial, sans-serif; font-size: 12px; fill: rgb(42, 63, 95); fill-opacity: 1; white-space: pre; opacity: 1;" transform="translate(0,206.56)">250</text></g><g class="ytick"><text text-anchor="end" x="79" y="4.199999999999999" style="font-family: 'Open Sans', verdana, arial, sans-serif; font-size: 12px; fill: rgb(42, 63, 95); fill-opacity: 1; white-space: pre; opacity: 1;" transform="translate(0,109.69)">300</text></g></g><g class="overaxes-above"/></g></g><g class="polarlayer"/><g class="smithlayer"/><g class="ternarylayer"/><g class="geolayer"/><g class="funnelarealayer"/><g class="pielayer"/><g class="iciclelayer"/><g class="treemaplayer"/><g class="sunburstlayer"/><g class="glimages"/><defs id="topdefs-bfb650"><g class="clips"/><clipPath id="legendbfb650"><rect width="84" height="48" x="0" y="0"/></clipPath></defs><g class="layer-above"><g class="imagelayer"/><g class="shapelayer"/></g><g class="infolayer"><g class="legend" pointer-events="all" transform="translate(904.16,100)"><rect class="bg" shape-rendering="crispEdges" style="stroke: rgb(68, 68, 68); stroke-opacity: 1; fill: rgb(255, 255, 255); fill-opacity: 1; stroke-width: 0px;" width="84" height="48" x="0" y="0"/><g class="scrollbox" transform="" clip-path="url(#legendbfb650)"><g class="groups"><g class="traces" transform="translate(0,14.5)" style="opacity: 1;"><text class="legendtext" text-anchor="start" x="40" y="4.680000000000001" style="font-family: 'Open Sans', verdana, arial, sans-serif; font-size: 12px; fill: rgb(42, 63, 95); fill-opacity: 1; white-space: pre;">PRs</text><g class="layers" style="opacity: 1;"><g class="legendfill"/><g class="legendlines"><path class="js-line" d="M5,0h30" style="fill: none; stroke: rgb(99, 110, 250); stroke-opacity: 1; stroke-width: 2px;"/></g><g class="legendsymbols"><g class="legendpoints"/></g></g><rect class="legendtoggle" x="0" y="-9.5" width="78.5625" height="19" style="fill: rgb(0, 0, 0); fill-opacity: 0;"/></g><g class="traces" transform="translate(0,33.5)" style="opacity: 1;"><text class="legendtext" text-anchor="start" x="40" y="4.680000000000001" style="font-family: 'Open Sans', verdana, arial, sans-serif; font-size: 12px; fill: rgb(42, 63, 95); fill-opacity: 1; white-space: pre;">Issues</text><g class="layers" style="opacity: 1;"><g class="legendfill"/><g class="legendlines"><path class="js-line" d="M5,0h30" style="fill: none; stroke: rgb(239, 85, 59); stroke-opacity: 1; stroke-width: 2px;"/></g><g class="legendsymbols"><g class="legendpoints"/></g></g><rect class="legendtoggle" x="0" y="-9.5" width="78.5625" height="19" style="fill: rgb(0, 0, 0); fill-opacity: 0;"/></g></g></g><rect class="scrollbar" rx="20" ry="3" width="0" height="0" style="fill: rgb(128, 139, 164); fill-opacity: 1;" x="0" y="0"/></g><g class="g-gtitle"><text class="gtitle" x="50" y="50" text-anchor="start" dy="0em" style="font-family: 'Open Sans', verdana, arial, sans-serif; font-size: 17px; fill: rgb(42, 63, 95); opacity: 1; font-weight: normal; white-space: pre;">Open issues and pull requests on each week</text></g><g class="g-xtitle"/><g class="g-ytitle"/></g></svg>