<svg class="main-svg" xmlns="http://www.w3.org/2000/svg" xmlns:xlink="http://www.w3.org/1999/xlink" width="1000" height="800" style="" viewBox="0 0 1000 800"><rect x="0" y="0" width="1000" height="800" style="fill: rgb(255, 255, 255); fill-opacity: 1;"/><defs id="defs-cfa2f6"><g class="clips"><clipPath id="clipcfa2f6xyplot" class="plotclip"><rect width="840" height="620"/></clipPath><clipPath class="axesclip" id="clipcfa2f6x"><rect x="80" y="0" width="840" height="800"/></clipPath><clipPath class="axesclip" id="clipcfa2f6y"><rect x="0" y="100" width="1000" height="620"/></clipPath><clipPath class="axesclip" id="clipcfa2f6xy"><rect x="80" y="100" width="840" height="620"/></clipPath></g><g class="gradients"/><g class="patterns"/></defs><g class="bglayer"><rect class="bg" x="80" y="100" width="840" height="620" style="fill: rgb(229, 236, 246); fill-opacity: 1; stroke-width: 0;"/></g><g class="layer-below"><g class="imagelayer"/><g class="shapelayer"/></g><g class="cartesianlayer"><g class="subplot xy"><g class="layer-subplot"><g class="shapelayer"/><g class="imagelayer"/></g><g class="minor-gridlayer"><g class="x"/><g class="y"/></g><g class="gridlayer"><g class="x"><path class="xgrid crisp" transform="translate(120.28,0)" d="M0,100v620" style="stroke: rgb(255, 255, 255); stroke-opacity: 1; stroke-width: 1px;"/><path class="xgrid crisp" transform="translate(221.94,0)" d="M0,100v620" style="stroke: rgb(255, 255, 255); stroke-opacity: 1; stroke-width: 1px;"/><path class="xgrid crisp" transform="translate(323.33000000000004,0)" d="M0,100v620" style="stroke: rgb(255, 255, 255); stroke-opacity: 1; stroke-width: 1px;"/><path class="xgrid crisp" transform="translate(424.72,0)" d="M0,100v620" style="stroke: rgb(255, 255, 255); stroke-opacity: 1; stroke-width: 1px;"/><path class="xgrid crisp" transform="translate(526.11,0)" d="M0,100v620" style="stroke: rgb(255, 255, 255); stroke-opacity: 1; stroke-width: 1px;"/><path class="xgrid crisp" transform="translate(627.78,0)" d="M0,100v620" style="stroke: rgb(255, 255, 255); stroke-opacity: 1; stroke-width: 1px;"/><path class="xgrid crisp" transform="translate(729.17,0)" d="M0,100v620" style="stroke: rgb(255, 255, 255); stroke-opacity: 1; stroke-width: 1px;"/><path class="xgrid crisp" transform="translate(830.56,0)" d="M0,100v620" style="stroke: rgb(255, 255, 255); stroke-opacity: 1; stroke-width: 1px;"/></g><g class="y"><path class="ygrid crisp" transform="translate(0,595.6800000000001)" d="M80,0h840" style="stroke: rgb(255, 255, 255); stroke-opacity: 1; stroke-width: 1px;"/><path class="ygrid crisp" transform="translate(0,498.46)" d="M80,0h840" style="stroke: rgb(255, 255, 255); stroke-opacity: 1; stroke-width: 1px;"/><path class="ygrid crisp" transform="translate(0,401.25)" d="M80,0h840" style="stroke: rgb(255, 255, 255); stroke-opacity: 1; stroke-width: 1px;"/><path class="ygrid crisp" transform="translate(0,304.03999999999996)" d="M80,0h840" style="stroke: rgb(255, 255, 255); stroke-opacity: 1; stroke-width: 1px;"/><path class="ygrid crisp" transform="translate(0,206.82999999999998)" d="M80,0h840" style="stroke: rgb(255, 255, 255); stroke-opacity: 1; stroke-width: 1px;"/><path class="ygrid crisp" transform="translate(0,109.61)" d="M80,0h840" style="stroke: rgb(255, 255, 255); stroke-opacity: 1; stroke-width: 1px;"/></g></g><g class="zerolinelayer"><path class="yzl zl crisp" transform="translate(0,692.89)" d="M80,0h840" style="stroke: rgb(255, 255, 255); stroke-opacity: 1; stroke-width: 2px;"/></g><path class="xlines-below"/><path class="ylines-below"/><g class="overlines-below"/><g class="xaxislayer-below"/><g class="yaxislayer-below"/><g class="overaxes-below"/><g class="plot" transform="translate(80,100)" clip-path="url(#clipcfa2f6xyplot)"><g class="scatterlayer mlayer"><g class="trace scatter trace787706" style="stroke-miterlimit: 2; opacity: 1;"><g class="fills"/><g class="errorbars"/><g class="lines"><path class="js-line" d="M0,587.06L1.94,589L3.89,589L5.83,589L7.78,583.17L9.72,575.39L11.67,573.45L13.61,554L15.56,548.17L17.5,569.56L19.44,561.78L21.39,567.61L23.33,557.89L27.22,544.28L29.17,544.28L31.11,552.06L33.06,550.11L35,538.45L36.94,538.45L40.83,538.45L42.78,536.51L44.72,536.51L46.67,534.56L48.61,530.67L50.56,534.56L54.44,538.45L56.39,542.34L58.33,538.45L60.28,544.28L62.22,548.17L64.17,555.95L68.06,552.06L70,554L71.94,548.17L73.89,552.06L75.83,550.11L77.78,554L79.72,548.17L81.67,546.23L83.61,538.45L85.56,536.51L87.5,538.45L89.44,534.56L91.39,550.11L93.33,544.28L95.28,552.06L97.22,554L101.11,544.28L103.06,542.34L105,544.28L106.94,548.17L108.89,542.34L110.83,540.39L112.78,528.73L114.72,528.73L116.67,522.9L118.61,522.9L120.56,509.29L122.5,507.34L124.44,499.56L126.39,487.9L128.33,489.84L130.28,505.4L132.22,501.51L134.17,493.73L136.11,503.45L138.06,507.34L140,522.9L141.94,515.12L143.89,513.17L145.83,509.29L147.78,507.34L149.72,503.45L151.67,499.56L153.61,489.84L155.56,487.9L157.5,493.73L159.44,497.62L161.39,491.79L163.33,487.9L165.28,485.95L167.22,482.07L169.17,489.84L171.11,487.9L173.06,487.9L175,485.95L176.94,487.9L178.89,501.51L180.83,509.29L182.78,501.51L184.72,501.51L186.67,495.68L188.61,493.73L190.56,485.95L192.5,485.95L194.44,505.4L196.39,509.29L198.33,487.9L200.28,495.68L202.22,487.9L204.17,489.84L206.11,485.95L208.06,487.9L213.89,468.46L215.83,458.74L217.78,462.62L219.72,464.57L221.67,452.9L223.61,456.79L225.56,450.96L227.5,507.34L229.44,501.51L231.39,503.45L235.28,499.56L237.22,495.68L239.17,489.84L241.11,495.68L243.06,495.68L245,493.73L246.94,485.95L248.89,482.07L250.83,478.18L252.78,476.23L254.72,484.01L256.67,478.18L258.61,485.95L260.56,478.18L262.5,470.4L264.44,476.23L266.39,474.29L268.33,468.46L272.22,460.68L274.17,454.85L276.11,452.9L278.06,447.07L280,443.18L281.94,445.13L283.89,456.79L285.83,460.68L287.78,460.68L289.72,458.74L291.67,450.96L293.61,454.85L295.56,452.9L297.5,452.9L301.39,439.29L303.33,450.96L307.22,447.07L309.17,441.24L311.11,439.29L313.06,431.52L315,415.96L316.94,414.02L320.83,410.13L322.78,415.96L324.72,419.85L326.67,419.85L328.61,410.13L330.56,410.13L332.5,414.02L334.44,412.07L336.39,408.18L338.33,400.41L340.28,398.46L342.22,421.79L344.17,419.85L346.11,419.85L348.06,417.91L350,412.07L351.94,415.96L353.89,414.02L355.83,414.02L357.78,410.13L359.72,404.3L361.67,388.74L363.61,394.57L365.56,390.69L367.5,382.91L369.44,379.02L371.39,371.24L373.33,367.36L375.28,353.75L377.22,355.69L381.11,345.97L383.06,344.02L386.94,340.14L388.89,342.08L394.72,336.25L396.67,345.97L398.61,349.86L400.56,345.97L402.5,344.02L404.44,336.25L406.39,336.25L408.33,328.47L410.28,328.47L412.22,322.64L414.17,322.64L416.11,320.69L418.06,316.8L420,309.03L423.89,299.31L425.83,314.86L427.78,324.58L429.72,318.75L431.67,328.47L433.61,359.58L435.56,373.19L437.5,367.36L441.39,351.8L443.33,347.91L447.22,344.02L449.17,328.47L451.11,330.41L453.06,328.47L455,324.58L456.94,316.8L458.89,312.92L460.83,307.08L462.78,307.08L464.72,297.36L466.67,283.75L468.61,279.86L470.56,262.37L472.5,264.31L474.44,266.25L476.39,260.42L480.28,305.14L482.22,305.14L484.17,310.97L486.11,320.69L488.06,363.47L490,367.36L493.89,344.02L495.83,338.19L499.72,324.58L501.67,316.8L509.44,291.53L511.39,277.92L513.33,275.98L515.28,264.31L519.17,246.81L521.11,239.03L523.06,233.2L525,221.54L526.94,219.59L528.89,205.98L530.83,192.37L532.78,184.6L534.72,200.15L536.67,188.48L538.61,184.6L540.56,184.6L542.5,176.82L544.44,172.93L546.39,172.93L548.33,219.59L550.28,213.76L552.22,221.54L554.17,227.37L556.11,225.43L558.06,225.43L560,219.59L561.94,215.7L563.89,207.93L565.83,227.37L567.78,239.03L569.72,233.2L571.67,223.48L573.61,248.76L575.56,248.76L579.44,244.87L581.39,248.76L583.33,244.87L585.28,239.03L587.22,229.31L589.17,229.31L591.11,225.43L593.06,213.76L596.94,225.43L598.89,274.03L600.83,279.86L602.78,264.31L606.67,250.7L608.61,242.92L610.56,237.09L612.5,209.87L616.39,202.09L618.33,188.48L620.28,178.76L622.22,176.82L624.17,172.93L626.11,167.1L628.06,163.21L630,155.43L631.94,151.54L633.89,132.1L635.83,205.98L637.78,202.09L639.72,196.26L641.67,196.26L647.5,184.6L649.44,190.43L651.39,182.65L653.33,196.26L655.28,190.43L657.22,260.42L659.17,258.48L661.11,258.48L663.06,242.92L665,237.09L666.94,237.09L668.89,239.03L670.83,242.92L672.78,235.15L674.72,231.26L676.67,223.48L678.61,217.65L680.56,217.65L682.5,213.76L684.44,207.93L686.39,204.04L688.33,198.21L690.28,198.21L692.22,190.43L694.17,184.6L696.11,174.87L698.06,167.1L700,176.82L701.94,172.93L703.89,165.15L705.83,165.15L707.78,153.49L709.72,149.6L711.67,134.05L713.61,134.05L715.56,132.1L717.5,122.38L719.44,163.21L723.33,155.43L725.28,155.43L727.22,147.66L729.17,143.77L731.11,141.82L733.06,122.38L735,124.32L736.94,110.71L738.89,108.77L740.83,120.44L744.72,106.83L746.67,108.77L748.61,112.66L750.56,118.49L752.5,161.26L754.44,167.1L756.39,170.99L758.33,169.04L760.28,155.43L762.22,159.32L766.11,151.54L768.06,145.71L773.89,128.21L775.83,126.27L779.72,112.66L781.67,112.66L783.61,93.22L785.56,93.22L789.44,85.44L791.39,83.49L793.33,83.49L795.28,79.61L797.22,73.77L799.17,64.05L803.06,56.28L805,44.61L806.94,42.67L808.89,36.83L810.83,54.33L812.78,36.83L814.72,36.83L816.67,34.89L820.56,34.89L822.5,31L824.44,64.05L826.39,56.28L828.33,54.33L830.28,32.94L832.22,54.33L834.17,54.33L836.11,60.16L838.06,56.28L840,77.66" style="vector-effect: none; fill: none; stroke: rgb(99, 110, 250); stroke-opacity: 1; stroke-width: 2px; opacity: 1;"/></g><g class="points"/><g class="text"/></g></g></g><g class="overplot"/><path class="xlines-above crisp" d="M0,0" style="fill: none;"/><path class="ylines-above crisp" d="M0,0" style="fill: none;"/><g class="overlines-above"/><g class="xaxislayer-above"><g class="xtick"><text text-anchor="middle" x="0" y="733" transform="translate(120.28,0)" style="font-family: 'Open Sans', verdana, arial, sans-serif; font-size: 12px; fill: rgb(42, 63, 95); fill-opacity: 1; white-space: pre; opacity: 1;">2016</text></g><g class="xtick"><text text-anchor="middle" x="0" y="733" style="font-family: 'Open Sans', verdana, arial, sans-serif; font-size: 12px; fill: rgb(42, 63, 95); fill-opacity: 1; white-space: pre; opacity: 1;" transform="translate(221.94,0)">2017</text></g><g class="xtick"><text text-anchor="middle" x="0" y="733" style="font-family: 'Open Sans', verdana, arial, sans-serif; font-size: 12px; fill: rgb(42, 63, 95); fill-opacity: 1; white-space: pre; opacity: 1;" transform="translate(323.33000000000004,0)">2018</text></g><g class="xtick"><text text-anchor="middle" x="0" y="733" style="font-family: 'Open Sans', verdana, arial, sans-serif; font-size: 12px; fill: rgb(42, 63, 95); fill-opacity: 1; white-space: pre; opacity: 1;" transform="translate(424.72,0)">2019</text></g><g class="xtick"><text text-anchor="middle" x="0" y="733" style="font-family: 'Open Sans', verdana, arial, sans-serif; font-size: 12px; fill: rgb(42, 63, 95); fill-opacity: 1; white-space: pre; opacity: 1;" transform="translate(526.11,0)">2020</text></g><g class="xtick"><text text-anchor="middle" x="0" y="733" style="font-family: 'Open Sans', verdana, arial, sans-serif; font-size: 12px; fill: rgb(42, 63, 95); fill-opacity: 1; white-space: pre; opacity: 1;" transform="translate(627.78,0)">2021</text></g><g class="xtick"><text text-anchor="middle" x="0" y="733" style="font-family: 'Open Sans', verdana, arial, sans-serif; font-size: 12px; fill: rgb(42, 63, 95); fill-opacity: 1; white-space: pre; opacity: 1;" transform="translate(729.17,0)">2022</text></g><g class="xtick"><text text-anchor="middle" x="0" y="733" style="font-family: 'Open Sans', verdana, arial, sans-serif; font-size: 12px; fill: rgb(42, 63, 95); fill-opacity: 1; white-space: pre; opacity: 1;" transform="translate(830.56,0)">2023</text></g></g><g class="yaxislayer-above"><g class="ytick"><text text-anchor="end" x="79" y="4.199999999999999" transform="translate(0,692.89)" style="font-family: 'Open Sans', verdana, arial, sans-serif; font-size: 12px; fill: rgb(42, 63, 95); fill-opacity: 1; white-space: pre; opacity: 1;">0</text></g><g class="ytick"><text text-anchor="end" x="79" y="4.199999999999999" style="font-family: 'Open Sans', verdana, arial, sans-serif; font-size: 12px; fill: rgb(42, 63, 95); fill-opacity: 1; white-space: pre; opacity: 1;" transform="translate(0,595.6800000000001)">50</text></g><g class="ytick"><text text-anchor="end" x="79" y="4.199999999999999" style="font-family: 'Open Sans', verdana, arial, sans-serif; font-size: 12px; fill: rgb(42, 63, 95); fill-opacity: 1; white-space: pre; opacity: 1;" transform="translate(0,498.46)">100</text></g><g class="ytick"><text text-anchor="end" x="79" y="4.199999999999999" style="font-family: 'Open Sans', verdana, arial, sans-serif; font-size: 12px; fill: rgb(42, 63, 95); fill-opacity: 1; white-space: pre; opacity: 1;" transform="translate(0,401.25)">150</text></g><g class="ytick"><text text-anchor="end" x="79" y="4.199999999999999" style="font-family: 'Open Sans', verdana, arial, sans-serif; font-size: 12px; fill: rgb(42, 63, 95); fill-opacity: 1; white-space: pre; opacity: 1;" transform="translate(0,304.03999999999996)">200</text></g><g class="ytick"><text text-anchor="end" x="79" y="4.199999999999999" style="font-family: 'Open Sans', verdana, arial, sans-serif; font-size: 12px; fill: rgb(42, 63, 95); fill-opacity: 1; white-space: pre; opacity: 1;" transform="translate(0,206.82999999999998)">250</text></g><g class="ytick"><text text-anchor="end" x="79" y="4.199999999999999" style="font-family: 'Open Sans', verdana, arial, sans-serif; font-size: 12px; fill: rgb(42, 63, 95); fill-opacity: 1; white-space: pre; opacity: 1;" transform="translate(0,109.61)">300</text></g></g><g class="overaxes-above"/></g></g><g class="polarlayer"/><g class="smithlayer"/><g class="ternarylayer"/><g class="geolayer"/><g class="funnelarealayer"/><g class="pielayer"/><g class="iciclelayer"/><g class="treemaplayer"/><g class="sunburstlayer"/><g class="glimages"/><defs id="topdefs-cfa2f6"><g class="clips"/></defs><g class="layer-above"><g class="imagelayer"/><g class="shapelayer"/></g><g class="infolayer"><g class="g-gtitle"><text class="gtitle" x="50" y="50" text-anchor="start" dy="0em" style="font-family: 'Open Sans', verdana, arial, sans-serif; font-size: 17px; fill: rgb(42, 63, 95); opacity: 1; font-weight: normal; white-space: pre;">Open issues on each week</text></g><g class="g-xtitle"><text class="xtitle" x="500" y="759.8" text-anchor="middle" style="font-family: 'Open Sans', verdana, arial, sans-serif; font-size: 14px; fill: rgb(42, 63, 95); opacity: 1; font-weight: normal; white-space: pre;">date</text></g><g class="g-ytitle"><text class="ytitle" transform="rotate(-90,31.809375000000003,410)" x="31.809375000000003" y="410" text-anchor="middle" style="font-family: 'Open Sans', verdana, arial, sans-serif; font-size: 14px; fill: rgb(42, 63, 95); opacity: 1; font-weight: normal; white-space: pre;">count</text></g></g></svg>